<?xml version="1.0" encoding="UTF-8"?>
<svg id="Layer_1" data-name="Layer 1" xmlns="http://www.w3.org/2000/svg" viewBox="0 0 2448 612">
  <defs>
    <style>
      .cls-1 {
        fill: #fff;
      }

      .cls-1, .cls-2, .cls-3 {
        stroke-width: 0px;
      }

      .cls-2, .cls-3 {
        fill: #e8ff00;
      }

      .cls-3 {
        opacity: .66;
      }
    </style>
  </defs>
  <g>
    <path class="cls-2" d="m493.45,146.19l-89.16-51.14c-59.8-36.19-68.52-42.91-109.3-20.19l-8.91,5.18c-.14.09-.3.18-.44.27-15.04,8.77-40.7,24.16-54.43,32.42-5.37,3.19-8.92,5.29-9.19,5.45-8.74,5.05-43.67,24.48-51.73,28.91-12.21,6.73-21.98,12.22-29.78,17.29-38.8,25.2-29.12,40.1-29.12,145.42,0,30.43-.81,53.32-1.02,71.08-.77,57.41,4.32,61.42,61.74,92.88l88.79,50.93c59.8,36.19,68.52,42.91,109.3,20.19l8.91-5.18c.14-.09.3-.18.44-.27,15.04-8.77,40.7-24.16,54.43-32.42,5.37-3.19,8.92-5.29,9.19-5.45,8.74-5.05,43.67-24.48,51.73-28.91,9.8-5.4,26.55-14.39,29.9-17.37,3.07-2.72,4.86-6.79,4.86-11.21,0,0,0,0,0-.01s0,0,0-.01c0-8.47-6.84-15.35-15.3-15.4-.04,0-.07,0-.11,0-3.03,0-5.85.88-8.24,2.39-.65.41-22.91,14.43-32.87,19.92-6.98,3.84-37.26,20.68-44.83,25.06-.23.13-3.31,1.96-7.96,4.72-11.89,7.15-34.14,20.49-47.17,28.09-.13.08-.26.16-.38.23l-7.72,4.49c-35.35,19.7-42.9,13.86-94.73-17.5l-76.95-44.14c-49.76-27.26-54.17-30.74-53.51-80.5.18-15.4.88-35.23.88-61.61,0-91.28-8.39-104.19,25.24-126.03,6.76-4.39,15.23-9.15,25.81-14.98,6.98-3.84,37.26-20.68,44.83-25.06.23-.13,3.31-1.96,7.96-4.72,11.89-7.15,34.14-20.49,47.17-28.09.13-.08.26-.16.38-.23l7.72-4.49c35.35-19.69,42.9-13.86,94.73,17.5l77.28,44.32c49.89,27.36,53.92,30.82,53.17,81.73-.12,8.67-.38,18.71-.59,30.49-.14,8.05-6.7,14.5-14.75,14.5h0c-8.26,0-14.92-6.78-14.75-15.04.15-7.8.32-14.63.4-20.68.64-43.06-2.77-45.99-44.97-69.13l-65.36-37.49c-43.84-26.53-50.23-31.46-80.13-14.8l-6.53,3.8c-.11.06-.22.13-.32.19-11.03,6.43-29.84,17.71-39.9,23.76-3.94,2.34-6.54,3.88-6.74,3.99-6.41,3.7-32.01,17.94-37.92,21.19-8.95,4.93-16.11,8.96-21.83,12.67-28.44,18.47-21.35,29.4-21.35,106.6,0,22.31-.59,39.09-.75,52.11-.57,42.08,3.17,45.03,45.26,68.09l65.09,37.33c43.84,26.53,50.23,31.46,80.13,14.8l6.53-3.8c.11-.06.22-.13.32-.19,11.03-6.43,29.84-17.71,39.9-23.76,3.94-2.34,6.54-3.88,6.74-3.99,6.41-3.7,32.01-17.94,37.92-21.19,4.81-2.65,9.11-5.04,12.94-7.26.98-.57,1.92-1.12,2.84-1.67,3.81-2.84,6.25-7.43,6.11-12.58-.21-8.27-7.19-14.93-15.46-14.78-2.83.05-5.47.88-7.71,2.28-.39.27-13.56,8.32-20.44,12.11-4.82,2.65-25.73,14.28-30.96,17.3-.16.09-2.28,1.35-5.5,3.26-8.21,4.94-23.57,14.15-32.58,19.4-.09.05-.18.11-.26.16l-5.33,3.1c-24.41,13.6-29.63,9.57-65.42-12.08l-53.14-30.48c-34.36-18.83-37.41-21.23-36.95-55.59.13-10.63.61-24.33.61-42.54,0-63.03-5.79-71.95,17.43-87.03,4.67-3.03,10.52-6.32,17.83-10.35,4.82-2.65,25.73-14.28,30.96-17.3.16-.09,2.28-1.35,5.5-3.26,8.21-4.94,23.57-14.15,32.58-19.4.09-.05.18-.11.27-.16l5.33-3.1c24.41-13.6,29.63-9.57,65.42,12.08l53.36,30.61c34.45,18.89,37.24,21.28,36.72,56.44-.05,3.61-.14,7.58-.23,11.94-.17,8.03-6.72,14.44-14.75,14.44h-.05c-8.25,0-14.9-6.76-14.75-15,.01-.71.02-1.41.03-2.09.41-27.29-1.76-29.14-28.5-43.81l-41.42-23.76c-27.78-16.81-31.83-19.94-50.78-9.38l-4.14,2.41c-.07.04-.14.08-.21.12-6.99,4.08-18.91,11.23-25.29,15.06-2.5,1.48-4.14,2.46-4.27,2.53-4.06,2.35-20.29,11.37-24.03,13.43-5.67,3.13-10.21,5.68-13.84,8.03-18.03,11.71-13.53,18.63-13.53,67.56,0,14.14-.38,24.77-.47,33.03-.36,26.67,2.01,28.54,28.68,43.15l41.25,23.66c27.78,16.81,31.83,19.94,50.78,9.38l4.14-2.41c.07-.04.14-.08.21-.12,6.99-4.08,18.91-11.23,25.29-15.06,2.5-1.48,4.14-2.46,4.27-2.53,4.02-2.32,19.96-11.19,23.91-13.36.04-.02,1.78-.98,2.57-1.42,3.91-2.69,6.47-7.19,6.47-12.29,0-4.75-2.22-8.98-5.68-11.71l-.69-.51c-.11-.08-.23-.17-.35-.24l-.3-.19c-.12-.07-.23-.14-.35-.21l-.85-.47c-2.01-1.01-4.29-1.59-6.7-1.59-1.97,0-3.85.39-5.57,1.08,0,0-.43.07-10.14,5.71-2.63,1.53-14.22,7.89-17.11,9.56-.09.05-1.26.75-3.04,1.8-4.54,2.73-13.03,7.82-18,10.72-.05.03-.1.06-.15.09l-2.95,1.71c-13.49,7.52-16.38,5.29-36.16-6.68l-29.37-16.85c-18.99-10.41-20.68-11.73-20.42-30.73.07-5.88.34-13.45.34-23.51,0-34.84-3.2-39.77,9.63-48.1,2.58-1.68,5.81-3.49,9.85-5.72,2.66-1.47,14.22-7.89,17.11-9.56.09-.05,1.26-.75,3.04-1.8,4.54-2.73,13.03-7.82,18-10.72.05-.03.1-.06.15-.09l2.95-1.71c13.49-7.52,16.38-5.29,36.16,6.68l29.5,16.92c19.04,10.44,20.58,11.76,20.29,31.19,0,.02,0,.05,0,.07-.06,4.29-3.56,7.74-7.86,7.74h-38.6c-5.28-9.39-15.29-15.77-26.8-15.89-16.93-.18-31.05,13.44-31.45,30.37-.41,17.53,13.67,31.87,31.11,31.87,11.03,0,20.71-5.74,26.24-14.4.37-.58.73-1.17,1.06-1.77h180.5c7.21,0,13.1-5.64,13.5-12.75.01-.26.02-.52.02-.78v-10.8c.13-24.95.76-44.46.97-60.09.87-58.74-3.78-62.73-61.35-94.3Z"/>
    <path class="cls-3" d="m467.23,420.26c-.92.55-1.86,1.1-2.84,1.67"/>
  </g>
  <g>
    <path class="cls-1" d="m700.42,259.42v40.84c0,1,.62,1.5,1.87,1.5h106.77c2,0,3.68.69,5.06,2.06,1.37,1.38,2.06,3.06,2.06,5.06v37.46c0,4.75-2.38,7.12-7.12,7.12h-106.77c-1.25,0-1.87.63-1.87,1.87v40.46c0,1.25.62,1.87,1.87,1.87h125.5c2,0,3.68.69,5.06,2.06,1.37,1.38,2.06,3.06,2.06,5.06v46.83c0,2-.69,3.69-2.06,5.06-1.38,1.38-3.06,2.06-5.06,2.06h-142.73c-2,0-4.25-.24-6.74-.75-2.5-.5-4.63-1.25-6.37-2.25l-34.47-34.47c-1-1.74-1.75-3.87-2.25-6.37-.5-2.49-.75-4.74-.75-6.74v-161.09c0-2,.24-4.24.75-6.74.5-2.49,1.25-4.62,2.25-6.37l34.47-34.47c1.75-.75,3.87-1.43,6.37-2.06,2.49-.62,4.74-.94,6.74-.94h142.73c2,0,3.68.69,5.06,2.06,1.37,1.38,2.06,3.06,2.06,5.06v47.2c0,2-.69,3.62-2.06,4.87-1.38,1.25-3.06,1.87-5.06,1.87h-125.5c-1.25,0-1.87.63-1.87,1.87Z"/>
    <path class="cls-1" d="m1048.45,395.03c2,0,3.62.69,4.87,2.06,1.25,1.38,1.87,3.06,1.87,5.06v49.45c0,2-.63,3.69-1.87,5.06-1.25,1.38-2.87,2.06-4.87,2.06h-161.84c-4.75,0-7.12-2.37-7.12-7.12v-248.01c0-4.74,2.37-7.12,7.12-7.12h51.7c4.74,0,7.12,2.38,7.12,7.12v184.7c0,2,.68,3.62,2.06,4.87,1.37,1.25,3.06,1.87,5.06,1.87h95.91Z"/>
    <path class="cls-1" d="m1149.22,259.42v40.84c0,1,.62,1.5,1.87,1.5h106.77c2,0,3.68.69,5.06,2.06,1.37,1.38,2.06,3.06,2.06,5.06v37.46c0,4.75-2.38,7.12-7.12,7.12h-106.77c-1.25,0-1.87.63-1.87,1.87v40.46c0,1.25.62,1.87,1.87,1.87h125.5c2,0,3.68.69,5.06,2.06,1.37,1.38,2.06,3.06,2.06,5.06v46.83c0,2-.69,3.69-2.06,5.06s-3.06,2.06-5.06,2.06h-142.73c-2,0-4.25-.24-6.74-.75-2.5-.5-4.63-1.25-6.37-2.25l-34.47-34.47c-1-1.74-1.75-3.87-2.25-6.37-.5-2.49-.75-4.74-.75-6.74v-161.09c0-2,.24-4.24.75-6.74.5-2.49,1.25-4.62,2.25-6.37l34.47-34.47c1.75-.75,3.87-1.43,6.37-2.06,2.49-.62,4.74-.94,6.74-.94h142.73c2,0,3.68.69,5.06,2.06,1.37,1.38,2.06,3.06,2.06,5.06v47.2c0,2-.69,3.62-2.06,4.87-1.38,1.25-3.06,1.87-5.06,1.87h-125.5c-1.25,0-1.87.63-1.87,1.87Z"/>
    <path class="cls-1" d="m1604.22,240.31c.62,2.5.94,4.75.94,6.74v204.55c0,2-.69,3.69-2.06,5.06-1.38,1.38-3.06,2.06-5.06,2.06h-52.07c-2,0-3.62-.68-4.87-2.06-1.25-1.37-1.87-3.06-1.87-5.06v-191.44h-41.96v191.44c0,2-.63,3.69-1.87,5.06-1.25,1.38-2.87,2.06-4.87,2.06h-47.2c-2,0-3.69-.68-5.06-2.06-1.38-1.37-2.06-3.06-2.06-5.06v-191.44h-41.96v191.44c0,4.75-2.38,7.12-7.12,7.12h-51.7c-4.75,0-7.12-2.37-7.12-7.12v-248.01c0-2,.68-3.68,2.06-5.06,1.37-1.37,3.06-2.06,5.06-2.06h218.79c2,0,4.31.31,6.93.94,2.62.63,4.8,1.31,6.55,2.06l34.47,34.47c.75,1.75,1.43,3.87,2.06,6.37Z"/>
    <path class="cls-1" d="m1714.16,259.42v40.84c0,1,.62,1.5,1.87,1.5h106.77c2,0,3.68.69,5.06,2.06,1.37,1.38,2.06,3.06,2.06,5.06v37.46c0,4.75-2.38,7.12-7.12,7.12h-106.77c-1.25,0-1.87.63-1.87,1.87v40.46c0,1.25.62,1.87,1.87,1.87h125.5c2,0,3.68.69,5.06,2.06,1.37,1.38,2.06,3.06,2.06,5.06v46.83c0,2-.69,3.69-2.06,5.06-1.38,1.38-3.06,2.06-5.06,2.06h-142.73c-2,0-4.25-.24-6.74-.75-2.5-.5-4.63-1.25-6.37-2.25l-34.47-34.47c-1-1.74-1.75-3.87-2.25-6.37-.5-2.49-.75-4.74-.75-6.74v-161.09c0-2,.24-4.24.75-6.74.5-2.49,1.25-4.62,2.25-6.37l34.47-34.47c1.75-.75,3.87-1.43,6.37-2.06,2.49-.62,4.74-.94,6.74-.94h142.73c2,0,3.68.69,5.06,2.06,1.37,1.38,2.06,3.06,2.06,5.06v47.2c0,2-.69,3.62-2.06,4.87-1.38,1.25-3.06,1.87-5.06,1.87h-125.5c-1.25,0-1.87.63-1.87,1.87Z"/>
    <path class="cls-1" d="m2112.59,240.31c.62,2.5.94,4.75.94,6.74v204.55c0,2-.69,3.69-2.06,5.06-1.38,1.38-3.06,2.06-5.06,2.06h-52.07c-2,0-3.69-.68-5.06-2.06-1.37-1.37-2.06-3.06-2.06-5.06v-184.69c0-2-.63-3.62-1.87-4.87-1.25-1.25-2.87-1.87-4.87-1.87h-74.18c-2,0-3.69.63-5.06,1.87-1.38,1.25-2.06,2.87-2.06,4.87v184.69c0,4.75-2.38,7.12-7.12,7.12h-51.7c-4.75,0-7.12-2.37-7.12-7.12v-248.01c0-2,.68-3.68,2.06-5.06,1.37-1.37,3.06-2.06,5.06-2.06h162.22c2,0,4.31.31,6.93.94,2.62.63,4.81,1.31,6.56,2.06l34.47,34.47c.75,1.75,1.43,3.87,2.06,6.37Z"/>
    <path class="cls-1" d="m2343.17,253.05c0,2-.69,3.69-2.06,5.06-1.38,1.38-3.06,2.06-5.06,2.06h-53.2c-2,0-3.69.63-5.06,1.87-1.38,1.25-2.06,2.87-2.06,4.87v184.69c0,2-.63,3.69-1.87,5.06-1.25,1.38-2.87,2.06-4.87,2.06h-52.07c-2,0-3.69-.68-5.06-2.06-1.38-1.37-2.06-3.06-2.06-5.06v-184.69c0-2-.63-3.62-1.87-4.87-1.25-1.25-2.87-1.87-4.87-1.87h-53.2c-2,0-3.69-.69-5.06-2.06-1.38-1.37-2.06-3.06-2.06-5.06v-49.45c0-4.74,2.37-7.12,7.12-7.12h186.19c2,0,3.68.69,5.06,2.06,1.37,1.38,2.06,3.06,2.06,5.06v49.45Z"/>
  </g>
</svg>